<svg xmlns="http://www.w3.org/2000/svg" width="512" height="512" viewBox="0 0 512 512">
<defs>
<linearGradient id="pin" x1="0" y1="0" x2="0" y2="1"><stop offset="0" stop-color="#ff3b30"/><stop offset="1" stop-color="#b40010"/></linearGradient>
<radialGradient id="inner" cx="50%" cy="42%" r="58%"><stop offset="0" stop-color="#ffffff"/><stop offset="1" stop-color="#dce5ef"/></radialGradient>
<filter id="shadow" x="-30%" y="-20%" width="160%" height="170%"><feDropShadow dx="0" dy="18" stdDeviation="18" flood-color="#88000a" flood-opacity="0.35"/></filter>
</defs>
<rect width="512" height="512" rx="96" fill="#f4f7fb"/>
<g filter="url(#shadow)">
<path d="M256 48c-90 0-163 73-163 163 0 121 163 253 163 253s163-132 163-253c0-90-73-163-163-163z" fill="url(#pin)"/>
<circle cx="256" cy="211" r="105" fill="url(#inner)" stroke="#c00018" stroke-width="12"/>
<path d="M178 217l78-76 78 76h-28v64h-44v-55h-36v55h-44v-64z" fill="#ed1c24"/>
<rect x="174" y="280" width="164" height="24" rx="10" fill="#ed1c24"/>
<path d="M150 83c42-35 104-48 163-31" fill="none" stroke="#ff7a70" stroke-width="16" stroke-linecap="round" opacity="0.45"/>
</g>
</svg>